<?xml version="1.0" encoding="UTF-8"?>
<svg width="313mm" height="241.5mm" version="1.1" viewBox="0 0 313 241.5" xmlns="http://www.w3.org/2000/svg">
 <defs>
  <style>.b27017d0-7ff9-4073-af6f-4f3124a4e5d0{fill:#fff;}</style>
 </defs>
 <g transform="translate(496.744 266.574)">
  <rect x="-489.244" y="-259.074" width="298" height="226.5" rx="2.17555" ry="2.17555" stroke-width=".264999"/>
  <rect x="-481.994" y="-252.324" width="282.5" height="211.5" rx="2.17555" ry="2.17555" fill="#fff" stroke-width=".264999"/>
  <path d="m-349.992-139.837c-12.8281 0-13.3485-1.02604-13.3485-7.11916h6.52593c0 2.56235 0.6192 2.37304 6.13044 2.37304 5.16199 0 7.5192 0.0967 7.51471-1.87869-5e-3 -1.97538-2.13902-1.87867-2.76857-1.87867h-9.69004c-3.95421 0-7.91022-0.3972-7.91022-6.4268 0-6.02961 2.53828-7.0206 13.0519-7.0206 10.5136 0 13.0518 0.44544 13.0518 6.92143l-6.53451 0.0101c0-2.43821-1.83718-2.18538-5.23188-2.18538-5.77778 0-7.81141-0.0759-7.81141 1.87867 0 1.95456 2.70472 1.87868 3.55959 1.87868h8.10799c6.78308 0 8.70127 1.23865 8.70127 6.7237s-1.9141 6.72369-13.3485 6.72369zm34.5084-5.73489c0-2.91742 0.71865-4.1816 3.5596-5.4383-2.56459-0.62981-3.36184-2.02289-3.36184-4.94388 0-6.05553 4.3501-5.63606 12.4586-5.63606 8.10855 0 12.4586-0.46027 12.4586 5.63604 0 2.92912-0.60847 4.45678-3.36185 4.9439 3.074 1.01512 3.55951 2.51304 3.55951 5.24054 0 6.47886-5.84517 5.93265-12.6563 5.93265-6.81106 0-12.6564 0.52969-12.6564-5.73489zm12.6564 1.18652c3.67975 0 6.52595 0.29427 6.52595-2.27417 0-2.56848-2.80065-2.27421-6.52595-2.27421-3.72527 0-6.52592-0.28529-6.52592 2.27421 0 2.55946 2.84619 2.27417 6.52592 2.27417zm6.32818-10.8766c0-2.51338-2.85615-2.17533-6.32818-2.17533-3.472 0-6.32818-0.31517-6.32818 2.17533 0 2.49049 2.85611 2.17531 6.32818 2.17531 3.4721 0 6.32818 0.33803 6.32818-2.17531zm22.9397 15.4249c-10.8241 0-13.4474 0.0254-13.4474-10.9754 0-11.001 3.19422-10.9754 13.4474-10.9754 10.2532 0 13.4474-0.0146 13.4474 10.9754 0 10.9901-2.62329 10.9754-13.4474 10.9754zm0-5.3394c7.01051 0 7.11921-0.22113 7.11921-5.63603 0-5.41489-0.45638-5.83382-7.11921-5.83382-6.66282 0-7.1192 0.41984-7.1192 5.83382 0 5.41399 0.10872 5.63603 7.1192 5.63603zm-141.791 5.14164v-16.0182h-9.49228v-5.53717h25.7082v5.53717h-9.49228v16.0182zm20.1711 3e-5v-21.5554h20.1711c5.61861 0 6.92144 2.31813 6.92144 7.11921s-1.76521 5.53792-3.5596 6.18703c2.46161 0.623 3.36185 1.74974 3.36186 4.09627v4.15286h-6.92146v-2.96633c0-1.19809-0.0145-2.37301-2.1753-2.37301h-11.0743v5.33941zm16.8092-10.8766c3.55971 0 3.55961-0.47014 3.55961-2.57084 0-2.10068-3.8e-4 -2.57074-3.55961-2.57074h-10.0855v5.15719zm44.495 3.16411v-6.92148h15.8205v6.92146z" stroke-width=".264583"/>
  <g>
   <rect x="-474.744" y="-244.574" width="268" height="74" rx="13.5883" ry="13.5883" stroke-width=".264999"/>
   <g transform="matrix(.10439 0 0 .10439 -457.244 -223.074)" fill="#fff" stroke-width="3.37943">
    <rect class="b27017d0-7ff9-4073-af6f-4f3124a4e5d0" x="696" y="63" width="96" height="228"/>
    <path class="b27017d0-7ff9-4073-af6f-4f3124a4e5d0" d="m924 54c-66.27 0-120 54.4-120 121.5s53.73 121.5 120 121.5 120-54.4 120-121.5-53.73-121.5-120-121.5zm0 192a36 36 0 1 1 36-36 36.0029 36.0029 0 0 1-36 36z"/>
    <path class="b27017d0-7ff9-4073-af6f-4f3124a4e5d0" d="m582 0v67a114.008 114.008 0 1 0-30 224h120v-291zm-60 210a35.9977 35.9977 0 1 1 36 36 36.0029 36.0029 0 0 1-36-36z"/>
    <path class="b27017d0-7ff9-4073-af6f-4f3124a4e5d0" d="m1308 0v84h-15c-23.2 0-39 15-42 42 0 0-3.05 69.51-3.14 71.25a98.9951 98.9951 0 0 1-98.86 93.75h-45v-84h12c23.2 0 39-12 42-42 0 0 3.05-69.51 3.14-71.25a98.9951 98.9951 0 0 1 98.86-93.75z"/>
    <path class="b27017d0-7ff9-4073-af6f-4f3124a4e5d0" d="m1521 132v159h-90v-138a12 12 0 0 0-24 0v138h-90v-291h90v63h45a68.997 68.997 0 0 1 69 69z"/>
    <path class="b27017d0-7ff9-4073-af6f-4f3124a4e5d0" d="m1677 63h-117v69h72a9 9 0 0 1 0 18h-21.62a0.2279 0.2279 0 0 0 0.03 0.11c-1.29-0.07-2.6-0.11-3.91-0.11a70.5 70.5 0 0 0 0 141h139.5v-159a68.997 68.997 0 0 0-69-69zm-84 147a36.0194 36.0194 0 0 1 29.68-35.45 36.5017 36.5017 0 0 1 6.32-0.55 36.0075 36.0075 0 0 1 34.49 25.68 35.5324 35.5324 0 0 1 1.51 10.32 36 36 0 0 1-72 0z"/>
    <path class="b27017d0-7ff9-4073-af6f-4f3124a4e5d0" d="m1845 210a36.0084 36.0084 0 0 0 68.74 15h79.75a121.562 121.562 0 1 1 8.42-27h-86.96a36.0052 36.0052 0 0 0-69.95 12z"/>
    <path class="b27017d0-7ff9-4073-af6f-4f3124a4e5d0" d="m357 63h-117v69h72a9 9 0 0 1 0 18h-21.62a0.2279 0.2279 0 0 0 0.03 0.11c-1.29-0.07-2.6-0.11-3.91-0.11a70.5 70.5 0 0 0 0 141h139.5v-159a68.997 68.997 0 0 0-69-69zm-84 147a36.0194 36.0194 0 0 1 29.68-35.45 36.5017 36.5017 0 0 1 6.32-0.55 36.0075 36.0075 0 0 1 34.49 25.68 35.5324 35.5324 0 0 1 1.51 10.32 36 36 0 0 1-72 0z"/>
    <path class="b27017d0-7ff9-4073-af6f-4f3124a4e5d0" d="M 161.66,172.66 A 90.0177,90.0177 0 0 0 216,89.8864 C 215.9384,40.0367 174.6964,0 124.8467,0 H 0 V 291 H 78 V 239.81 A 11.81,11.81 0 0 1 89.81,228 v 0 a 11.81,11.81 0 0 1 10.7547,6.9307 L 126,291 h 93 z M 93,192 a 36.0271,36.0271 0 0 1 -35.25,-43.34 34.953,34.953 0 0 1 1.42,-5 A 36.0057,36.0057 0 1 1 93,192 Z"/>
    <path class="b27017d0-7ff9-4073-af6f-4f3124a4e5d0" d="m2232 291h-96l-18.24-46.56-11.9936-30.6094a10.7538 10.7538 0 0 0-10.0126-6.8306 10.7537 10.7537 0 0 0-10.7538 10.7538v73.2462h-69v-291h69v143.26l39.71-59.26h95.6l-45.63 71.39z"/>
   </g>
   <rect x="-474.744" y="-130.574" width="268.186" height="83.6232" rx="13.5883" ry="13.5883" stroke-width=".264999"/>
  </g>
 </g>
</svg>
