<svg id="be510a70-9b95-49ac-94f7-0db37a1ab969" data-name="main" xmlns="http://www.w3.org/2000/svg" width="31in" height="4.125in" viewBox="0 0 2232 297"><defs><style>.b27017d0-7ff9-4073-af6f-4f3124a4e5d0{fill:#f5333f;}</style></defs><title>RadioShack Logo 1972</title><rect class="b27017d0-7ff9-4073-af6f-4f3124a4e5d0" x="696" y="63" width="96" height="228"/><path class="b27017d0-7ff9-4073-af6f-4f3124a4e5d0" d="M924,54c-66.27,0-120,54.4-120,121.5S857.73,297,924,297s120-54.4,120-121.5S990.27,54,924,54Zm0,192a36,36,0,1,1,36-36A36.0029,36.0029,0,0,1,924,246Z" transform="translate(0 0)"/><path class="b27017d0-7ff9-4073-af6f-4f3124a4e5d0" d="M582,0V67a114.0079,114.0079,0,1,0-30,224H672V0ZM522,210a35.9977,35.9977,0,1,1,36,36A36.0029,36.0029,0,0,1,522,210Z" transform="translate(0 0)"/><path class="b27017d0-7ff9-4073-af6f-4f3124a4e5d0" d="M1308,0V84h-15c-23.2,0-39,15-42,42,0,0-3.05,69.51-3.14,71.25A98.9951,98.9951,0,0,1,1149,291h-45V207h12c23.2,0,39-12,42-42,0,0,3.05-69.51,3.14-71.25A98.9951,98.9951,0,0,1,1260,0Z" transform="translate(0 0)"/><path class="b27017d0-7ff9-4073-af6f-4f3124a4e5d0" d="M1521,132V291h-90V153a12,12,0,0,0-24,0V291h-90V0h90V63h45A68.997,68.997,0,0,1,1521,132Z" transform="translate(0 0)"/><path class="b27017d0-7ff9-4073-af6f-4f3124a4e5d0" d="M1677,63H1560v69h72a9,9,0,0,1,0,18h-21.62a.2279.2279,0,0,0,.03.11c-1.29-.07-2.6-.11-3.91-.11a70.5,70.5,0,0,0,0,141H1746V132A68.997,68.997,0,0,0,1677,63Zm-84,147a36.0194,36.0194,0,0,1,29.68-35.45A36.5017,36.5017,0,0,1,1629,174a36.0075,36.0075,0,0,1,34.49,25.68A35.5324,35.5324,0,0,1,1665,210a36,36,0,0,1-72,0Z" transform="translate(0 0)"/><path class="b27017d0-7ff9-4073-af6f-4f3124a4e5d0" d="M1845,210a36.0084,36.0084,0,0,0,68.74,15h79.75a121.5621,121.5621,0,1,1,8.42-27h-86.96A36.0052,36.0052,0,0,0,1845,210Z" transform="translate(0 0)"/><path class="b27017d0-7ff9-4073-af6f-4f3124a4e5d0" d="M357,63H240v69h72a9,9,0,0,1,0,18H290.38a.2279.2279,0,0,0,.03.11c-1.29-.07-2.6-.11-3.91-.11a70.5,70.5,0,0,0,0,141H426V132A68.997,68.997,0,0,0,357,63ZM273,210a36.0194,36.0194,0,0,1,29.68-35.45A36.5017,36.5017,0,0,1,309,174a36.0075,36.0075,0,0,1,34.49,25.68A35.5324,35.5324,0,0,1,345,210a36,36,0,0,1-72,0Z" transform="translate(0 0)"/><path class="b27017d0-7ff9-4073-af6f-4f3124a4e5d0" d="M161.66,172.66A90.0177,90.0177,0,0,0,216,89.8864C215.9384,40.0367,174.6964,0,124.8467,0H0V291H78V239.81A11.81,11.81,0,0,1,89.81,228h0a11.81,11.81,0,0,1,10.7547,6.9307L126,291h93ZM93,192a36.0271,36.0271,0,0,1-35.25-43.34,34.953,34.953,0,0,1,1.42-5A36.0057,36.0057,0,1,1,93,192Z" transform="translate(0 0)"/><path class="b27017d0-7ff9-4073-af6f-4f3124a4e5d0" d="M2232,291h-96l-18.24-46.56-11.9936-30.6094A10.7538,10.7538,0,0,0,2095.7538,207h0A10.7537,10.7537,0,0,0,2085,217.7538V291h-69V0h69V143.26L2124.71,84h95.6l-45.63,71.39Z" transform="translate(0 0)"/></svg>